Coordinates
version=1
nRows=43
nColumns=12
inDegrees=yes

Units are S.I. units (second, meters, Newtons, ...)
Angles are in degrees

endheader
time	SC_y	SC_z	SC_x	AC_y	AC_z	AC_x	GH_y	GH_z	GH_yy	EL_x	PS_y
       0.0              -54.94          12.63          6.658          60.89          9.634          1.876         -59.04          41.41          77.85          48.98          123.3
   0.03138              -54.94          12.64          6.658          60.89          9.634          1.877         -59.04          41.41          77.85          48.98          123.3
   0.06276              -54.94          12.64          6.658          60.88          9.634          1.878         -59.03           41.4          77.84          48.97          123.3
   0.09414              -54.93          12.65          6.658          60.88          9.634           1.88         -59.03          41.39          77.84          48.96          123.3
    0.1255              -54.93          12.65          6.658          60.88          9.633          1.881         -59.02          41.38          77.83          48.96          123.3
    0.1569              -54.92          12.66          6.658          60.88          9.633          1.883         -59.02          41.37          77.83          48.95          123.3
    0.1883              -54.92          12.66          6.658          60.87          9.633          1.885         -59.01          41.36          77.82          48.94          123.3
    0.2197              -54.91          12.67          6.658          60.87          9.633          1.886          -59.0          41.35          77.81          48.93          123.3
    0.2511              -54.91          12.67          6.658          60.87          9.632          1.888          -59.0          41.34           77.8          48.92          123.3
    0.2824               -54.9          12.68          6.658          60.86          9.632           1.89         -58.99          41.33           77.8          48.91          123.3
    0.3138              -54.89          12.68          6.658          60.86          9.632          1.893         -58.98          41.31          77.79           48.9          123.3
    0.3452              -54.89          12.69          6.658          60.85          9.631          1.895         -58.98           41.3          77.78          48.89          123.3
    0.3766              -54.88           12.7          6.657          60.85          9.631          1.898         -58.97          41.28          77.77          48.88          123.3
     0.408              -54.87          12.71          6.657          60.84          9.631          1.901         -58.96          41.27          77.75          48.86          123.3
    0.4393              -54.86          12.71          6.657          60.84           9.63          1.904         -58.95          41.25          77.74          48.85          123.3
    0.4707              -54.85          12.72          6.657          60.83           9.63          1.907         -58.94          41.23          77.73          48.83          123.3
    0.5021              -54.84          12.73          6.657          60.83          9.629           1.91         -58.92          41.21          77.71          48.82          123.3
    0.5335              -54.83          12.75          6.657          60.82          9.629          1.914         -58.91          41.18           77.7           48.8          123.3
    0.5649              -54.82          12.76          6.657          60.81          9.628          1.919          -58.9          41.16          77.68          48.78          123.3
    0.5962              -54.81          12.77          6.657           60.8          9.627          1.923         -58.88          41.13          77.66          48.76          123.3
    0.6276              -54.79          12.79          6.656          60.79          9.627          1.928         -58.86           41.1          77.64          48.73          123.3
     0.659              -54.78           12.8          6.656          60.78          9.626          1.934         -58.85          41.06          77.62           48.7          123.4
    0.6904              -54.76          12.82          6.656          60.77          9.625           1.94         -58.82          41.03          77.59          48.67          123.4
    0.7218              -54.74          12.84          6.656          60.76          9.624          1.947          -58.8          40.98          77.56          48.64          123.4
    0.7532              -54.72          12.86          6.655          60.74          9.623          1.955         -58.78          40.94          77.53           48.6          123.4
    0.7845              -54.69          12.89          6.655          60.73          9.622          1.963         -58.75          40.89           77.5          48.56          123.4
    0.8159              -54.66          12.91          6.655          60.71           9.62          1.973         -58.72          40.83          77.46          48.52          123.4
    0.8473              -54.63          12.95          6.654          60.69          9.619          1.984         -58.68          40.76          77.42          48.46          123.4
    0.8787               -54.6          12.98          6.654          60.67          9.617          1.996         -58.64          40.69          77.37          48.41          123.4
    0.9101              -54.56          13.02          6.653          60.64          9.615          2.009         -58.59          40.61          77.31          48.34          123.4
    0.9414              -54.51          13.07          6.653          60.61          9.613          2.025         -58.54          40.51          77.25          48.26          123.4
    0.9728              -54.46          13.12          6.652          60.58           9.61          2.043         -58.48           40.4          77.17          48.18          123.4
     1.004               -54.4          13.18          6.651          60.54          9.607          2.064         -58.41          40.27          77.09          48.08          123.5
     1.036              -54.33          13.25          6.651          60.49          9.604          2.088         -58.33          40.13          76.99          47.96          123.5
     1.067              -54.25          13.33          6.649          60.44            9.6          2.117         -58.23          39.95          76.87          47.82          123.5
     1.098              -54.15          13.43          6.648          60.38          9.595           2.15         -58.12          39.75          76.74          47.66          123.5
      1.13              -54.04          13.54          6.647           60.3          9.589           2.19         -57.99          39.51          76.57          47.47          123.5
     1.161               -53.9          13.68          6.645          60.21          9.582          2.238         -57.83          39.22          76.38          47.24          123.6
     1.192              -53.73          13.84          6.643          60.11          9.574          2.295         -57.63          38.87          76.14          46.96          123.6
     1.224              -53.53          14.05           6.64          59.97          9.564          2.366          -57.4          38.45          75.86          46.62          123.7
     1.255              -53.28           14.3          6.637          59.81          9.551          2.453          -57.1          37.92           75.5           46.2          123.7
     1.287              -52.96          14.61          6.633          59.61          9.535          2.561         -56.74          37.26          75.06          45.68          123.8
     1.318              -52.57          15.01          6.628          59.35          9.516          2.697         -56.28          36.44           74.5          45.02          123.9
